<svg width="269" height="395" viewBox="0 0 269 395" fill="none" xmlns="http://www.w3.org/2000/svg">
<g filter="url(#filter0_i_247_229)">
<path d="M114.5 395H0L143 0L269 120L114.5 395Z" fill="#DDBF93"/>
</g>
<path d="M144.159 93.7368C143.759 94.4034 139.759 108.537 135.359 125.47C114.293 203.87 102.293 244.137 89.2261 280.003L83.0928 297.07L86.1594 300.403C89.8928 304.403 102.693 312.27 107.359 313.47C110.559 314.27 111.226 313.337 124.826 285.203C152.426 228.537 191.226 139.47 191.226 132.803C191.226 128.803 170.159 108.003 157.493 99.7368C146.959 92.8035 145.226 92.0034 144.159 93.7368Z" fill="black"/>
<defs>
<filter id="filter0_i_247_229" x="0" y="0" width="269" height="399" filterUnits="userSpaceOnUse" color-interpolation-filters="sRGB">
<feFlood flood-opacity="0" result="BackgroundImageFix"/>
<feBlend mode="normal" in="SourceGraphic" in2="BackgroundImageFix" result="shape"/>
<feColorMatrix in="SourceAlpha" type="matrix" values="0 0 0 0 0 0 0 0 0 0 0 0 0 0 0 0 0 0 127 0" result="hardAlpha"/>
<feOffset dy="4"/>
<feGaussianBlur stdDeviation="2"/>
<feComposite in2="hardAlpha" operator="arithmetic" k2="-1" k3="1"/>
<feColorMatrix type="matrix" values="0 0 0 0 0 0 0 0 0 0 0 0 0 0 0 0 0 0 0.25 0"/>
<feBlend mode="normal" in2="shape" result="effect1_innerShadow_247_229"/>
</filter>
</defs>
</svg>
