<svg width="341" height="488" viewBox="0 0 341 488" fill="none" xmlns="http://www.w3.org/2000/svg">
<g filter="url(#filter0_i_247_230)">
<path d="M341 487.5L0.5 435V47H135.5L212 0L341 47V294V487.5Z" fill="#FCC36A"/>
</g>
<path d="M178.561 74.0665L175.228 75.5332L179.228 77.2665C183.361 79.1332 181.495 79.7999 176.295 78.4665C174.428 77.9332 173.628 76.9999 174.161 75.5332C174.961 73.7999 173.895 73.6665 165.761 74.4665C149.762 76.0665 147.495 76.5999 142.961 79.2665C140.428 80.7332 138.828 81.2665 139.361 80.3332C140.028 79.2665 139.628 79.1332 138.028 79.6665C136.695 80.1999 135.228 80.5999 134.828 80.5999C134.295 80.7332 135.361 81.5332 137.228 82.5999L140.561 84.5999L137.228 83.9332C134.828 83.3999 132.695 84.0665 130.295 85.9332C128.028 87.6665 126.428 88.0665 125.895 87.2665C125.361 86.4665 124.428 86.1999 123.761 86.7332C123.095 87.1332 122.828 87.7999 123.095 88.3332C123.361 88.8665 122.695 90.1999 121.495 91.2665C119.628 92.9999 119.495 92.8665 120.295 90.8665C122.561 84.8665 108.028 98.8665 102.028 108.467C94.6948 119.933 92.4282 139.133 96.8282 152.067C98.0282 155.667 99.3615 158.867 99.7615 159.267C100.295 159.667 101.761 161.667 102.961 163.667C104.428 165.933 106.161 167.133 107.228 166.733C108.428 166.333 108.828 166.733 108.295 168.067C107.628 169.933 115.628 174.333 119.895 174.333C120.961 174.333 122.561 174.867 123.495 175.533C124.295 176.2 128.428 177.133 132.695 177.533C138.695 178.2 140.028 177.933 139.228 176.6C138.428 175.4 139.228 175.133 142.695 175.8L147.228 176.733L143.895 174.6L140.561 172.467L143.895 173.4C145.761 173.933 148.028 174.6 148.961 174.867C149.761 175.267 150.561 174.867 150.561 174.067C150.561 173.267 149.228 172.467 147.628 172.467C145.228 172.333 145.095 172.2 146.961 171.667C148.295 171.267 150.161 171.667 151.095 172.467C153.228 174.333 159.761 170.333 164.428 164.2C167.361 160.333 167.761 159 166.561 156.067C165.895 154.067 165.228 151.4 165.361 150.2C165.361 149 166.161 150.067 167.228 152.6L168.961 157.267L170.295 153.933C170.961 152.067 171.361 148.6 171.095 146.333C170.828 143.933 171.095 141.8 171.761 141.4C172.961 140.6 171.361 129.667 169.761 127C169.228 126.2 165.628 125.933 160.695 126.333C156.295 126.6 153.628 126.733 154.828 126.333C156.561 125.933 156.828 125 156.028 122.867C155.361 121.267 155.095 118.6 155.361 116.867C155.628 115.267 155.228 113.933 154.561 113.933C153.761 113.933 153.228 114.867 153.228 116.2C153.228 117.4 152.828 118.067 152.428 117.533C151.228 116.333 153.361 108.467 154.695 109.4C156.561 110.467 156.161 105.533 153.895 100.2C151.895 95.3999 151.895 95.2665 156.428 90.8665C158.828 88.4665 161.095 85.5332 161.495 84.5999C161.895 83.1332 162.295 83.1332 163.095 84.3332C163.628 85.2665 162.695 87.2665 160.695 89.1332C156.961 92.4665 156.295 95.7999 158.828 97.3999C159.628 97.9332 159.895 97.7999 159.495 96.8665C158.961 96.1999 160.561 93.3999 163.095 90.8665C165.628 88.1999 167.228 85.6665 166.828 85.1332C166.295 84.5999 166.561 84.5999 167.495 85.1332C169.761 86.3332 176.428 83.1332 174.295 81.7999C173.361 81.2665 173.095 80.3332 173.495 79.9332C174.028 79.3999 174.961 79.3999 175.761 79.7999C176.561 80.3332 182.961 80.8665 190.161 80.9999C201.361 81.2665 204.161 81.7999 210.161 84.8665C213.895 86.8665 218.162 90.0665 219.762 92.0665C221.228 93.9332 223.095 95.1332 223.762 94.7332C224.428 94.1999 225.495 94.4665 225.895 95.2665C226.428 96.0665 226.295 96.5999 225.628 96.4665C223.228 96.0665 222.028 96.7332 223.495 97.6665C224.428 98.1999 225.495 101.4 225.895 104.6C226.295 107.8 227.228 111.133 228.028 112.067C228.695 113 228.961 115.267 228.428 117.4C227.761 119.933 227.895 120.733 229.095 120.067C230.028 119.4 230.562 120.333 230.562 122.867C230.562 125.8 230.295 126.2 229.228 124.6C228.295 123.133 227.895 124.867 227.895 130.333C227.895 135.667 228.295 137.8 229.361 137.133C230.428 136.6 230.428 137 229.495 138.733C228.828 140.2 227.228 148.733 225.895 157.933C224.695 167.133 223.095 176.067 222.428 177.8C221.761 179.533 221.495 182.2 222.028 183.667C222.561 185.4 222.295 185.933 221.361 185.4C220.561 184.867 219.895 184.867 219.762 185.533C219.762 186.067 219.495 188.6 219.095 190.867C218.828 193.267 218.828 195.267 219.228 195.267C220.828 195.267 223.895 185 223.361 181.933C222.961 180.067 222.961 179.4 223.361 180.333C223.761 181.133 224.695 181.667 225.228 181.267C225.895 180.867 225.761 182.467 225.095 184.867C224.295 187.267 223.495 190.333 223.228 191.8C222.961 193.133 221.762 194.867 220.695 195.8C217.895 198.067 209.095 210.067 207.495 213.933C206.828 215.8 206.295 218.067 206.428 219.133C206.561 220.067 206.161 220.467 205.361 219.933C204.561 219.533 203.895 219.667 203.895 220.333C203.895 220.867 202.695 222.733 201.228 224.333C198.695 227 198.828 231.267 201.495 231.267C202.295 231.267 202.428 230.333 202.028 229.133C201.628 228.067 201.761 227.4 202.428 227.933C203.095 228.333 203.895 227.8 204.295 227C204.561 226.067 204.828 227.133 204.695 229.4C204.561 233.267 204.295 233.533 199.228 233.4C194.962 233.4 194.028 233.8 194.295 235.667C194.561 237.133 194.028 237.667 192.561 237.133C190.561 236.333 189.628 238.467 191.628 239.667C192.161 239.933 191.895 239.933 190.961 239.8C190.161 239.533 188.695 240.333 187.761 241.533C186.295 243.267 186.428 243.8 188.295 245.267C189.495 246.2 190.561 247.667 190.561 248.733C190.561 249.8 189.495 249.267 188.028 247.267L185.361 243.933L178.028 251.533C174.028 255.667 168.428 260.867 165.761 263.133L160.695 267.133L164.295 268.467C166.295 269.267 167.895 270.467 167.895 271.267C167.895 273.133 161.628 273 160.428 271C159.761 270.067 160.161 269.933 161.361 270.6C162.828 271.4 162.828 271.267 161.628 269.933C160.028 268.067 156.695 269.4 158.028 271.4C158.428 272.067 158.161 272.467 157.495 272.333C156.695 272.067 156.161 272.467 156.028 273.267C156.028 273.933 156.961 274.6 158.295 274.6C159.495 274.6 161.361 275.133 162.295 275.8C163.361 276.333 165.761 277.4 167.628 277.933L171.228 278.867L167.361 280.467C164.961 281.4 163.895 282.6 164.428 283.933C164.828 285 164.561 285.933 163.895 285.933C161.895 285.933 162.295 280.867 164.295 280.2C167.361 279 160.828 275.533 156.295 275.933C153.361 276.067 152.295 275.667 152.828 274.733C153.361 273.933 148.961 277.133 143.228 281.933C137.361 286.733 130.828 291.8 128.828 293.133C126.695 294.467 125.361 295.8 125.761 296.2C126.161 296.6 127.361 296.333 128.428 295.4C129.761 294.2 130.428 294.333 130.961 295.667C131.495 297.133 130.561 297.4 127.095 297.133C122.428 296.867 117.895 299.667 119.228 302.067C119.761 302.733 119.228 302.867 118.295 302.6C117.228 302.2 115.228 303 113.895 304.333C112.428 305.667 108.561 308.6 105.228 310.867C101.895 313.133 97.7615 316.333 95.8948 318.067C94.0282 319.8 89.8948 322.867 86.8282 324.867C78.5615 330.467 77.3615 333 76.8282 347.267C76.5615 354.2 76.0282 360.867 75.4948 361.933C73.6282 366.733 73.3615 379.667 75.0948 381.4C76.2948 382.467 82.0282 383.4 90.6948 383.933C108.695 385 119.628 385.933 140.028 388.6C145.761 389.267 151.495 389.533 152.561 389.133C153.628 388.6 156.295 388.867 158.295 389.667C160.295 390.467 166.828 391.4 172.961 391.8C181.895 392.333 183.895 392.2 183.895 390.6C183.895 389.533 184.695 389 185.761 389.4C186.828 389.8 187.495 390.867 187.095 391.8C186.428 393.667 223.895 397.533 226.695 395.933C227.762 395.133 228.028 395.4 227.361 396.467C226.561 397.667 228.162 398.067 233.495 398.067C240.028 397.933 246.828 398.467 258.561 399.8C269.495 401.133 283.095 401.933 281.628 401.133C279.228 400.067 279.495 397.533 281.895 398.467C284.028 399.267 284.161 398.867 284.561 383C284.561 377.8 285.228 373.267 286.028 373C286.695 372.733 287.095 370.333 286.828 367.8C286.428 365.133 286.828 362.6 287.495 362.067C289.095 361 295.228 315.133 295.095 305.4C294.961 301.133 295.228 298.2 295.761 299.133C296.828 300.733 297.095 299 297.628 287.933C297.761 285 298.428 282.2 298.961 281.8C299.628 281.267 298.561 280.6 296.695 280.333C294.161 279.8 292.695 280.333 291.895 282.067C290.961 283.667 290.961 284.733 291.895 285.267C292.561 285.667 293.228 285.133 293.228 284.067C293.228 281 295.228 281.533 295.495 284.6C295.628 286.2 295.095 287 294.428 286.467C293.628 286.067 292.695 286.867 292.295 288.467C291.895 290.067 290.828 291.267 289.761 291.267C288.695 291.267 288.295 292.067 288.828 293.533C289.361 295 289.228 295.4 288.161 294.733C287.228 294.2 286.561 294.333 286.561 295.133C286.561 299.533 292.295 295.667 293.628 290.333C294.028 289 294.295 290.2 294.428 292.867C294.428 295.533 293.895 298.2 292.961 298.733C292.028 299.267 291.895 299.133 292.428 298.2C292.961 297.267 292.828 296.6 292.028 296.6C289.761 296.6 288.961 299.267 290.961 300.067C291.895 300.333 292.828 301.667 292.828 302.733C292.828 303.933 292.028 304.467 290.828 303.933C289.495 303.4 289.228 303.933 289.761 305.533C290.295 306.867 290.961 311.8 291.228 316.6C291.495 321.4 291.361 323.667 291.095 321.533C290.695 319.533 289.761 317.933 288.961 317.933C288.161 317.933 287.761 315.8 288.161 312.733C288.561 308.6 288.161 307.667 286.561 308.2C285.228 308.6 285.095 308.467 286.161 307.667C288.561 305.933 289.761 299.667 287.895 298.6C285.761 297.267 283.761 300.6 284.695 303.8C285.228 305.4 284.961 305.933 284.028 305.4C283.228 304.867 282.561 305.4 282.561 306.6C282.561 307.8 282.028 308.333 281.228 307.933C280.561 307.533 279.895 307.667 279.895 308.467C279.895 309.133 278.295 311.533 276.428 313.8C272.828 318.2 273.361 319.4 277.495 315.667C279.761 313.667 279.895 313.667 279.895 315.667C279.895 317 279.095 318.067 278.295 318.067C277.361 318.2 275.228 318.467 273.628 318.6C269.628 319 265.895 322.067 267.895 323.267C268.961 323.933 268.695 324.467 267.228 325C266.028 325.533 265.495 325.4 265.895 324.6C266.961 323 263.628 322.867 261.895 324.467C258.962 327 247.228 328.6 226.562 329C214.428 329.267 207.628 329.133 211.228 328.6L217.895 327.667L211.228 327.4C207.628 327.4 202.161 327 199.228 326.6C194.962 326.067 194.561 326.2 197.228 327.133C199.628 328.067 199.895 328.333 198.161 328.467C196.828 328.6 194.428 327.933 192.828 327C191.228 326.2 186.961 325.4 183.228 325.133C179.628 325 173.895 324.6 170.561 324.2C163.628 323.267 152.695 322.067 143.895 321.133C122.428 319.133 117.361 318.467 116.561 317.667C116.161 317.267 118.428 315.533 121.761 313.8C126.161 311.667 127.495 310.467 126.295 309.667C125.095 308.867 125.628 308.733 127.495 309.267C129.095 309.667 130.695 309.533 131.095 308.733C131.495 308.067 134.961 305.933 138.828 303.933C142.695 302.067 146.961 299.133 148.295 297.667C149.761 295.933 150.561 295.533 150.561 296.733C150.561 298.067 150.961 298.067 151.628 297.133C152.161 296.333 155.228 294.333 158.428 292.6C162.961 290.333 163.895 289.4 162.428 288.333C160.961 287.267 161.095 287.133 162.961 287.8C164.295 288.2 168.695 286.733 173.228 284.067C181.095 279.8 182.161 277.8 176.695 278.067C175.095 278.067 174.695 278.467 175.628 278.867C178.028 279.8 173.495 283.267 169.895 283.133C167.895 283.133 168.028 282.733 170.961 281.667C172.961 281 174.295 279.8 173.761 279.133C172.561 277.133 177.095 276.2 180.561 277.667C182.961 278.733 184.028 278.733 185.228 277.133C186.561 275.667 186.561 275.267 185.095 275.267C184.028 275.267 184.428 274.467 186.028 273.267C187.361 272.2 189.228 271.4 189.895 271.267C190.695 271.267 190.295 271.933 189.228 272.6C185.628 275 190.561 274.067 194.561 271.667C198.028 269.667 198.161 269.267 196.161 267.667C194.161 266.2 194.428 266.067 197.628 267.267C199.628 267.933 201.228 268.067 201.228 267.533C201.228 267 203.628 265.4 206.561 264.067C210.161 262.333 211.761 260.867 211.228 259.667C210.828 258.333 211.361 257.933 212.961 258.467C214.295 258.867 219.228 256.867 224.961 253.4C234.028 248.067 234.428 247.667 231.628 246.2C228.828 244.867 228.962 244.733 233.095 245.133C236.828 245.533 239.628 244.2 248.295 238.067C254.028 234.067 258.161 230.467 257.361 230.2C256.428 229.933 254.828 230.467 253.628 231.533C251.762 233 251.628 233 252.161 231.267C252.561 230.067 254.428 229.267 256.695 229.267C261.895 229.267 264.828 227.4 262.428 225.667C260.961 224.733 261.228 224.6 263.095 225.133C264.561 225.667 266.428 225 267.761 223.533C268.961 222.2 271.628 219.933 273.628 218.6C275.761 217.267 277.095 215.4 276.695 214.333C276.161 213.133 276.695 212.6 278.295 212.867C279.761 213.133 280.428 212.467 280.161 211C279.895 209.4 280.428 208.867 281.628 209.4C282.695 209.8 284.561 208.467 285.895 206.333C287.228 204.333 289.361 201.667 290.428 200.333C294.161 196.333 300.161 183.267 302.561 174.067C304.161 167.8 304.695 145.267 303.361 138.067C301.095 125.267 298.428 119.667 295.761 121.267C294.561 122.067 294.295 121.667 294.961 120.067C296.828 115.4 281.761 98.4665 274.695 97.1332C272.428 96.5999 270.161 95.7999 269.761 95.1332C269.361 94.4665 270.161 94.3332 271.495 94.7332C272.828 95.1332 271.228 93.9332 268.028 92.0665C264.828 90.0665 260.828 88.1999 259.095 87.7999C257.361 87.2665 255.495 86.4665 255.095 85.7999C254.161 84.3332 251.895 84.1999 251.895 85.7999C251.895 86.3332 253.895 87.5332 256.295 88.3332L260.561 89.7999L256.561 89.5332C253.895 89.3999 252.161 88.3332 251.228 86.1999C250.561 84.5999 249.095 83.5332 248.161 83.9332C247.095 84.3332 246.828 83.9332 247.361 83.1332C247.895 82.0665 247.228 81.9332 245.095 82.7332C243.361 83.2665 238.561 83.7999 234.562 83.7999C227.362 83.9332 227.228 83.9332 226.828 88.1999C226.562 91.3999 226.962 92.5999 229.095 93.2665C232.295 94.1999 232.828 96.5999 230.028 96.5999C229.095 96.5999 227.228 94.5999 226.161 92.1999C224.295 88.4665 224.295 87.5332 225.895 85.1332C228.028 81.7999 227.361 80.5999 223.361 80.4665C221.628 80.4665 221.228 80.0665 222.295 79.6665C223.361 79.2665 225.628 79.6666 227.361 80.5999C229.761 81.9332 231.495 81.9332 234.828 80.8665L239.228 79.2665L233.895 80.0665C229.762 80.5999 228.962 80.3332 230.562 79.1332C232.295 77.9332 232.161 77.7999 230.295 78.4665C228.961 78.8665 225.628 78.3332 222.828 77.3999C219.895 76.3332 212.828 75.1332 206.961 74.7332C201.095 74.3332 195.095 73.6665 193.761 73.1332C191.895 72.5999 191.628 72.7332 193.095 73.6665C194.428 74.5999 193.228 75.1332 188.695 75.3999C181.761 76.0665 181.228 75.6665 185.628 73.9332C188.561 72.7332 188.561 72.7332 185.228 72.7332C183.361 72.7332 180.428 73.3999 178.561 74.0665Z" fill="#6D7FA7"/>
<defs>
<filter id="filter0_i_247_230" x="0.5" y="0" width="340.5" height="491.5" filterUnits="userSpaceOnUse" color-interpolation-filters="sRGB">
<feFlood flood-opacity="0" result="BackgroundImageFix"/>
<feBlend mode="normal" in="SourceGraphic" in2="BackgroundImageFix" result="shape"/>
<feColorMatrix in="SourceAlpha" type="matrix" values="0 0 0 0 0 0 0 0 0 0 0 0 0 0 0 0 0 0 127 0" result="hardAlpha"/>
<feOffset dy="4"/>
<feGaussianBlur stdDeviation="2"/>
<feComposite in2="hardAlpha" operator="arithmetic" k2="-1" k3="1"/>
<feColorMatrix type="matrix" values="0 0 0 0 0 0 0 0 0 0 0 0 0 0 0 0 0 0 0.25 0"/>
<feBlend mode="normal" in2="shape" result="effect1_innerShadow_247_230"/>
</filter>
</defs>
</svg>
