<svg width="401" height="431" viewBox="0 0 401 431" fill="none" xmlns="http://www.w3.org/2000/svg">
<g filter="url(#filter0_d_246_43)">
<path d="M44.3596 1.37585C43.9596 2.44254 42.7596 13.1092 41.6929 25.2425C39.2929 50.1758 17.2929 278.309 12.2262 331.243C10.3596 350.309 7.6929 378.443 6.0929 393.643C4.62623 408.976 3.6929 421.776 4.0929 422.309C5.15957 423.243 395.293 420.576 396.36 419.643C396.76 419.109 395.293 375.109 393.026 321.643C389.293 234.576 379.56 3.50919 379.56 3.10919C379.56 2.97586 319.693 2.57584 246.626 2.04251C173.426 1.64252 98.0929 0.842529 79.2929 0.442535C50.6262 -0.357452 44.8929 -0.0908203 44.3596 1.37585ZM220.626 48.8425C221.426 50.9759 230.76 76.3092 241.426 105.243C262.36 162.576 306.36 282.443 328.226 341.909L341.96 379.243L353.426 379.643L364.893 380.043V385.243V390.576H284.893H204.893V385.243V379.909H221.56C230.76 379.909 238.226 379.509 238.226 378.843C238.226 377.909 212.626 301.909 206.76 285.509L203.293 275.909H155.026H106.893L100.626 293.509C93.2929 314.309 71.6929 375.376 70.6262 378.043C70.0929 379.643 73.0262 379.909 88.0929 379.909H106.226V385.243V390.576H68.8929H31.5596V385.243V379.909H42.7596C53.8262 379.909 53.9596 379.909 55.2929 376.176C56.0929 374.176 62.0929 357.909 68.8929 339.909C75.5596 321.909 91.2929 279.909 103.56 246.576C125.56 187.243 169.826 68.1759 175.56 52.8425L178.36 45.2425H198.893H219.293L220.626 48.8425Z" fill="#433E3A"/>
</g>
<defs>
<filter id="filter0_d_246_43" x="0" y="-0.000610352" width="400.425" height="430.505" filterUnits="userSpaceOnUse" color-interpolation-filters="sRGB">
<feFlood flood-opacity="0" result="BackgroundImageFix"/>
<feColorMatrix in="SourceAlpha" type="matrix" values="0 0 0 0 0 0 0 0 0 0 0 0 0 0 0 0 0 0 127 0" result="hardAlpha"/>
<feOffset dy="4"/>
<feGaussianBlur stdDeviation="2"/>
<feComposite in2="hardAlpha" operator="out"/>
<feColorMatrix type="matrix" values="0 0 0 0 0 0 0 0 0 0 0 0 0 0 0 0 0 0 0.25 0"/>
<feBlend mode="normal" in2="BackgroundImageFix" result="effect1_dropShadow_246_43"/>
<feBlend mode="normal" in="SourceGraphic" in2="effect1_dropShadow_246_43" result="shape"/>
</filter>
</defs>
</svg>
