<svg width="330" height="470" viewBox="0 0 330 470" fill="none" xmlns="http://www.w3.org/2000/svg">
<g filter="url(#filter0_d_247_89)">
<path d="M253 461.5H49.5L4 0H325.5L253 461.5Z" fill="#DCBF93"/>
</g>
<path d="M140.893 59.9385C128.893 66.3385 113.96 87.2719 103.56 112.339C79.4262 170.472 72.0929 303.539 91.0262 340.605C97.9596 354.205 110.226 360.472 129.96 360.605C145.293 360.605 154.76 358.072 169.96 350.205C189.96 339.539 204.493 325.805 213.96 308.472C218.493 300.072 224.626 282.072 226.093 272.472C226.893 268.205 227.56 267.539 235.16 264.605C254.226 257.405 271.693 246.605 279.96 237.139C284.493 232.072 285.026 230.339 282.893 227.139C281.826 225.405 278.893 226.605 263.96 234.072C245.56 243.272 230.36 249.139 228.093 247.805C227.426 247.272 226.893 244.605 226.893 241.805C226.893 220.472 213.026 197.405 195.293 189.539C187.693 186.205 167.026 184.739 157.56 187.005C154.36 187.672 151.426 188.072 151.16 187.805C150.76 187.539 152.093 180.739 154.093 172.872C166.226 122.339 167.293 81.0052 156.626 62.7386C154.626 59.4052 153.16 58.3385 149.56 58.2052C147.026 57.9385 143.16 58.8719 140.893 59.9385ZM149.693 90.7386C150.493 92.8719 151.16 100.739 151.16 108.472C151.16 132.605 144.36 163.539 127.826 214.472C120.226 237.805 119.56 239.272 119.16 233.805C118.893 230.472 119.293 219.005 120.093 208.339C124.493 148.872 138.226 87.1385 147.16 87.1385C147.826 87.1385 148.893 88.7386 149.693 90.7386ZM177.56 206.472C187.026 211.272 194.626 227.405 196.893 247.405L197.693 255.139H193.96C187.826 255.139 175.16 251.405 169.16 247.805C157.16 240.872 150.893 231.139 150.893 219.539C150.893 211.939 153.426 207.672 159.426 205.139C163.96 203.139 172.093 203.805 177.56 206.472ZM133.026 248.739C137.426 257.272 146.493 265.139 157.826 270.605C167.96 275.272 169.96 275.805 182.626 276.205L196.226 276.739L195.426 281.672C191.16 306.472 180.093 323.405 162.093 332.472C151.426 337.939 139.56 339.405 134.226 335.939C126.626 330.872 121.826 313.005 120.626 284.739L119.826 267.005L125.026 255.805C127.826 249.672 130.36 244.605 130.493 244.472C130.626 244.472 131.826 246.339 133.026 248.739Z" fill="#403F3C"/>
<defs>
<filter id="filter0_d_247_89" x="0" y="0" width="329.5" height="469.5" filterUnits="userSpaceOnUse" color-interpolation-filters="sRGB">
<feFlood flood-opacity="0" result="BackgroundImageFix"/>
<feColorMatrix in="SourceAlpha" type="matrix" values="0 0 0 0 0 0 0 0 0 0 0 0 0 0 0 0 0 0 127 0" result="hardAlpha"/>
<feOffset dy="4"/>
<feGaussianBlur stdDeviation="2"/>
<feComposite in2="hardAlpha" operator="out"/>
<feColorMatrix type="matrix" values="0 0 0 0 0 0 0 0 0 0 0 0 0 0 0 0 0 0 0.25 0"/>
<feBlend mode="normal" in2="BackgroundImageFix" result="effect1_dropShadow_247_89"/>
<feBlend mode="normal" in="SourceGraphic" in2="effect1_dropShadow_247_89" result="shape"/>
</filter>
</defs>
</svg>
