<svg width="383" height="348" viewBox="0 0 383 348" fill="none" xmlns="http://www.w3.org/2000/svg">
<g filter="url(#filter0_i_247_92)">
<path d="M319 348L0 323.5L44.5 0H382.5L319 348Z" fill="#F2E9D8"/>
</g>
<path d="M153.293 93.4718C135.96 96.6718 117.96 106.139 106.226 118.139C95.1597 129.472 95.0263 129.739 89.8263 138.272C83.8263 148.005 79.293 158.939 75.4263 173.605C72.893 182.805 72.3597 188.272 72.2263 204.139C72.2263 216.672 72.893 225.872 74.093 230.139C76.493 238.672 83.693 254.805 85.293 254.805C85.8263 254.805 86.093 255.339 85.693 255.872C84.6263 257.605 99.1597 273.472 107.293 279.605C136.76 301.872 176.626 307.072 206.626 292.672C216.36 288.005 219.693 286.005 218.76 285.205C218.36 284.805 219.16 284.539 220.493 284.539C221.826 284.672 222.76 284.005 222.493 283.072C222.36 282.005 222.76 281.605 223.56 282.139C224.226 282.539 224.893 282.272 224.893 281.339C224.893 280.405 225.293 280.139 225.826 280.539C227.426 282.139 242.226 264.939 247.026 255.739C251.293 247.605 251.693 246.272 250.226 242.805C249.426 240.805 246.893 238.272 244.76 237.472C239.826 235.339 235.96 237.739 232.226 244.939C225.693 258.005 214.226 269.339 200.893 275.739C192.226 280.005 189.693 280.672 180.76 280.672C172.093 280.805 169.56 280.272 162.893 276.805C143.293 266.672 133.026 240.005 136.76 208.272C138.493 192.539 142.493 177.205 147.693 165.739C149.826 160.939 151.293 156.139 150.893 155.072C150.626 154.139 150.76 153.605 151.426 154.005C152.093 154.405 153.026 153.739 153.56 152.405C153.96 151.205 154.226 150.139 154.093 150.139C153.426 150.139 161.026 141.472 167.56 134.805C177.693 124.539 185.693 120.805 197.56 120.805C209.56 120.805 217.96 124.805 225.693 134.405C233.826 144.405 237.293 154.272 237.96 169.472C238.493 180.805 238.893 182.405 241.826 185.072C245.96 188.939 249.56 188.939 253.426 185.072C256.76 181.739 280.893 111.472 280.893 105.205C280.893 100.939 276.226 96.1385 272.093 96.1385C268.493 96.1385 262.36 101.472 262.093 104.805C261.826 107.205 261.56 108.139 260.493 110.805C259.96 111.872 257.693 118.139 255.426 124.805C253.16 131.339 251.026 137.205 250.626 137.872C250.226 138.539 247.826 135.472 245.293 131.205C242.76 126.939 239.026 121.872 237.026 119.739C231.96 114.405 217.426 104.139 215.026 104.139C213.826 104.139 212.893 103.605 212.893 102.939C212.893 101.872 210.36 100.539 206.226 99.4718C205.826 99.3385 204.626 98.8052 203.56 98.4052C192.36 93.7385 166.093 91.2052 153.293 93.4718Z" fill="#FA4C4D"/>
<defs>
<filter id="filter0_i_247_92" x="0" y="0" width="382.5" height="352" filterUnits="userSpaceOnUse" color-interpolation-filters="sRGB">
<feFlood flood-opacity="0" result="BackgroundImageFix"/>
<feBlend mode="normal" in="SourceGraphic" in2="BackgroundImageFix" result="shape"/>
<feColorMatrix in="SourceAlpha" type="matrix" values="0 0 0 0 0 0 0 0 0 0 0 0 0 0 0 0 0 0 127 0" result="hardAlpha"/>
<feOffset dy="4"/>
<feGaussianBlur stdDeviation="2"/>
<feComposite in2="hardAlpha" operator="arithmetic" k2="-1" k3="1"/>
<feColorMatrix type="matrix" values="0 0 0 0 0 0 0 0 0 0 0 0 0 0 0 0 0 0 0.25 0"/>
<feBlend mode="normal" in2="shape" result="effect1_innerShadow_247_92"/>
</filter>
</defs>
</svg>
