<svg width="349" height="502" viewBox="0 0 349 502" fill="none" xmlns="http://www.w3.org/2000/svg">
<g filter="url(#filter0_i_247_100)">
<path d="M58.1333 2.47232C57.8667 3.939 54.8 27.939 51.4667 55.8057C45.3333 106.206 33.7333 201.539 22.1333 295.806C18.8 322.872 12.8 372.072 8.8 405.139C4.8 438.072 1.2 467.272 0.666667 469.939L0 474.739L16.4 476.339C33.2 477.939 106.667 483.806 243.467 494.472C286 497.672 323.2 500.739 326.267 501.139L331.733 501.939L332.667 477.539C333.067 464.072 334.667 419.272 336.133 377.806C337.6 336.339 339.333 285.672 340.133 265.139C340.8 244.606 342.4 201.406 343.467 169.139C344.533 136.872 346.133 94.8723 346.8 75.8057C348.667 27.939 348.533 12.4723 346.533 11.8057C345.6 11.539 283.333 8.87231 208.133 5.939C132.933 2.87231 68.5333 0.338989 65.0667 0.0723267C59.6 -0.194336 58.6667 0.205658 58.1333 2.47232ZM140.933 40.4723C217.333 46.2057 303.2 54.4724 314.667 57.4057C317.867 58.2057 317.867 58.2057 317.2 72.339C316.8 80.0723 314.8 97.6723 312.667 111.406L308.933 136.339L297.467 137.272C285.333 138.339 254.267 136.472 229.333 133.139C211.6 130.739 174.933 127.139 168.8 127.139H164.533L161.067 149.406C159.067 161.806 157.467 176.206 157.467 181.406C157.467 190.339 157.733 191.139 160.533 191.806C164.933 192.872 188.267 196.072 204.8 197.939C222 199.806 225.067 200.739 225.067 204.072C225.2 209.806 222.667 238.206 220.933 250.472C219.867 257.806 218.533 266.606 218.133 270.072C217.333 276.072 217.067 276.472 212.4 277.272C209.733 277.806 196.4 277.139 182.8 275.939C169.2 274.606 156.533 273.939 154.533 274.472C151.467 275.272 150.8 276.472 149.467 282.206C146.667 295.406 145.333 308.072 145.067 325.806L144.8 343.539L167.467 346.472C180 348.206 200.8 351.139 213.867 353.006C234.133 356.072 280.667 361.806 284.8 361.806C287.6 361.806 284 397.272 279.467 415.139C274.933 432.739 274.667 433.806 273.6 433.806C273.067 433.806 268 433.272 262.133 432.472C256.267 431.806 228.133 429.006 199.467 426.472C170.933 423.939 136.667 420.606 123.467 419.139C100 416.472 59.0667 410.472 54.5333 409.006C51.7333 408.206 51.6 404.606 53.4667 389.139C54.1333 383.272 57.2 352.339 60.1333 320.472C73.3333 177.539 78.1333 133.406 86.2667 77.139C92.5333 33.4057 91.2 37.8057 98.6667 37.8057C102.133 37.8057 121.2 39.0056 140.933 40.4723Z" fill="#433E3A"/>
</g>
<g filter="url(#filter1_i_247_100)">
<path d="M325 54L83.5 32.5L46.5 415.5L282.5 441.5L287.5 360L149 342.5V278L223 282.5L232 199.5L164 188V133.5L311.5 143.5L325 54Z" fill="#FEB648"/>
</g>
<defs>
<filter id="filter0_i_247_100" x="0" y="0" width="348.121" height="505.939" filterUnits="userSpaceOnUse" color-interpolation-filters="sRGB">
<feFlood flood-opacity="0" result="BackgroundImageFix"/>
<feBlend mode="normal" in="SourceGraphic" in2="BackgroundImageFix" result="shape"/>
<feColorMatrix in="SourceAlpha" type="matrix" values="0 0 0 0 0 0 0 0 0 0 0 0 0 0 0 0 0 0 127 0" result="hardAlpha"/>
<feOffset dy="4"/>
<feGaussianBlur stdDeviation="2"/>
<feComposite in2="hardAlpha" operator="arithmetic" k2="-1" k3="1"/>
<feColorMatrix type="matrix" values="0 0 0 0 0 0 0 0 0 0 0 0 0 0 0 0 0 0 0.25 0"/>
<feBlend mode="normal" in2="shape" result="effect1_innerShadow_247_100"/>
</filter>
<filter id="filter1_i_247_100" x="46.5" y="32.5" width="278.5" height="413" filterUnits="userSpaceOnUse" color-interpolation-filters="sRGB">
<feFlood flood-opacity="0" result="BackgroundImageFix"/>
<feBlend mode="normal" in="SourceGraphic" in2="BackgroundImageFix" result="shape"/>
<feColorMatrix in="SourceAlpha" type="matrix" values="0 0 0 0 0 0 0 0 0 0 0 0 0 0 0 0 0 0 127 0" result="hardAlpha"/>
<feOffset dy="4"/>
<feGaussianBlur stdDeviation="2"/>
<feComposite in2="hardAlpha" operator="arithmetic" k2="-1" k3="1"/>
<feColorMatrix type="matrix" values="0 0 0 0 0 0 0 0 0 0 0 0 0 0 0 0 0 0 0.25 0"/>
<feBlend mode="normal" in2="shape" result="effect1_innerShadow_247_100"/>
</filter>
</defs>
</svg>
