<svg width="377" height="443" viewBox="0 0 377 443" fill="none" xmlns="http://www.w3.org/2000/svg">
<g filter="url(#filter0_i_247_101)">
<path d="M376.5 46C280.333 36.3333 70.5 13.6 0.5 0V443H276L376.5 46Z" fill="#F2E9D8"/>
</g>
<path d="M71.5596 121.405C64.2263 122.072 56.6263 122.739 54.6263 122.739C52.6263 122.872 51.293 123.405 51.693 123.939C52.093 124.605 50.493 124.739 48.3596 124.339C46.093 123.805 43.4263 124.072 42.493 124.872C41.5596 125.672 38.3596 126.605 35.5596 126.872C28.3596 127.539 24.493 134.072 24.893 144.605C25.293 153.939 28.7596 158.205 35.4263 157.405C37.8263 157.139 40.3596 157.539 40.7596 158.339C41.4263 159.272 40.2263 159.539 37.293 159.005C33.8263 158.472 33.4263 158.605 35.1596 159.672C38.6263 161.939 53.5596 163.139 53.5596 161.272C53.5596 160.072 55.293 159.939 59.5596 160.605C64.2263 161.272 65.5596 161.005 65.5596 159.672C65.5596 158.205 65.8263 158.205 66.893 159.805C68.093 161.539 68.3596 161.539 69.5596 159.805C70.3596 158.472 70.893 158.339 70.893 159.405C70.893 160.339 71.9596 161.139 73.1596 161.139C74.7596 161.139 75.0263 161.539 74.093 162.472C72.2263 164.339 74.7596 176.072 76.6263 174.872C77.4263 174.339 77.693 174.872 77.1596 176.205C76.093 178.872 78.6263 193.139 80.493 195.405C81.293 196.339 81.5596 197.805 81.293 198.739C80.893 199.672 81.0263 201.672 81.693 203.139C82.493 205.405 82.7596 205.272 83.0263 201.805C83.1596 199.539 83.1596 196.205 83.0263 194.205C82.893 192.339 83.293 190.339 83.9596 189.939C84.7596 189.539 85.0263 192.472 84.6263 197.539C84.3596 202.072 83.5596 206.072 82.7596 206.205C81.9596 206.605 81.9596 207.405 83.0263 208.605C83.8263 209.672 84.893 214.339 85.293 219.139C85.5596 223.939 86.493 227.805 87.1596 227.805C87.9596 227.805 88.093 228.739 87.693 229.939C87.293 231.139 87.5596 234.472 88.3596 237.405C89.1596 240.472 90.2263 245.939 90.893 249.672C92.893 261.005 93.5596 264.339 94.3596 266.472C94.7596 267.539 95.293 271.405 95.693 275.005C96.2263 281.139 98.893 287.139 98.893 282.472C98.893 280.739 99.1596 280.739 100.226 282.472C100.893 283.539 101.426 286.205 101.426 288.472L101.293 292.472L100.226 288.472C99.5596 285.939 99.4263 287.939 99.8263 293.805C100.226 298.872 101.026 303.805 101.826 304.739C102.493 305.672 103.16 309.272 103.16 312.739C103.16 317.672 103.426 318.472 104.36 316.472C105.293 314.339 105.426 314.605 105.026 317.805C104.36 322.605 107.026 341.139 108.493 341.139C109.026 341.139 109.16 340.205 108.76 339.139C108.226 338.072 108.493 337.139 109.026 337.139C109.693 337.139 110.36 342.605 110.36 349.139C110.493 358.605 111.026 361.805 112.893 363.805C114.093 365.139 114.76 366.872 114.36 367.672C113.426 369.139 121.693 379.139 125.426 381.139C127.693 382.339 137.56 379.939 137.56 378.205C137.56 377.672 138.36 377.539 139.426 377.939C140.76 378.472 141.026 377.672 140.626 374.872C140.226 372.072 140.626 372.472 142.093 376.472C144.76 383.272 144.76 383.805 141.96 383.672C140.493 383.672 140.226 383.272 141.293 382.872C144.626 381.539 142.76 379.805 138.626 380.472C131.026 381.805 129.16 382.605 130.626 384.072C132.76 386.205 142.626 386.339 144.226 384.472C147.16 381.005 149.426 368.205 148.36 362.205C147.293 356.472 146.226 357.005 145.16 363.805C144.76 366.339 144.493 365.939 144.36 362.472C144.36 359.939 144.893 355.672 145.56 353.139C146.493 350.072 146.493 346.205 145.56 341.805C144.893 338.072 143.693 331.805 143.026 327.805C141.96 321.672 141.693 321.405 141.96 326.072C142.093 329.139 141.693 331.272 141.16 330.872C140.493 330.472 140.36 326.072 140.76 321.139C141.426 315.272 141.16 311.805 140.226 311.139C139.56 310.739 139.293 308.872 139.693 307.005C140.226 304.739 139.826 303.539 138.36 303.005C137.16 302.605 136.226 301.672 136.226 300.872C136.226 300.205 136.893 300.072 137.56 300.472C138.36 300.872 138.893 300.339 138.893 299.272C138.893 298.205 138.226 296.872 137.426 296.339C136.626 295.939 136.36 293.939 136.76 291.939C137.426 289.139 137.293 288.872 136.226 290.872C135.426 292.072 135.16 294.472 135.693 296.205C136.36 298.605 136.226 298.872 134.76 297.539C133.426 296.205 133.426 294.872 134.76 290.472C135.693 287.139 135.826 284.339 135.16 282.872C134.493 281.539 134.226 279.672 134.493 278.739C135.293 276.739 133.293 276.605 131.16 278.739C130.226 279.672 129.56 279.805 129.56 279.005C129.56 278.339 130.76 277.005 132.226 276.072C134.493 274.605 135.293 274.739 137.026 276.472C138.493 277.805 140.093 278.205 142.093 277.539C143.56 277.139 146.76 276.472 148.893 276.339C167.96 274.872 171.693 274.072 170.226 271.672C169.826 271.005 170.36 270.872 171.56 271.405C173.293 272.072 173.426 272.339 171.96 273.272C170.226 274.472 181.693 273.539 185.56 272.205C186.626 271.805 190.626 271.272 194.226 271.005C197.96 270.605 202.36 269.805 204.226 269.139C206.093 268.472 211.56 267.539 216.626 267.139C221.56 266.605 225.293 265.805 224.893 265.139C224.493 264.605 221.96 264.605 219.293 265.139C210.226 267.005 202.893 267.539 203.693 266.339C204.093 265.672 207.16 265.139 210.626 265.139C215.826 265.139 216.36 264.872 214.493 263.405C212.493 262.072 212.893 261.805 217.16 261.539C221.426 261.405 221.693 261.539 218.893 262.472L215.56 263.539L219.026 263.672C220.893 263.805 223.026 263.139 223.693 262.472C224.626 261.539 226.093 261.539 228.36 262.472C231.426 263.805 231.293 263.805 227.56 263.139C224.093 262.472 223.96 262.605 226.093 263.939C227.96 265.139 229.293 265.139 231.026 263.939C232.493 263.139 234.76 262.472 236.226 262.472C239.693 262.472 243.96 260.072 248.626 255.539C252.093 251.939 253.293 249.139 251.293 249.139C250.626 249.139 250.093 247.672 250.093 245.805C249.826 241.672 250.626 241.539 252.226 245.405C253.026 247.672 253.426 247.805 253.426 246.205C253.56 242.872 247.026 236.739 244.093 237.539C242.76 237.939 241.826 237.539 241.96 236.739C242.626 233.539 235.693 231.672 226.893 232.605C222.093 233.139 216.493 233.672 214.226 233.939C200.093 235.272 195.826 235.939 193.56 237.139C190.226 238.872 188.36 238.872 190.893 237.005C192.36 235.939 191.96 235.805 188.893 236.472C186.76 237.005 179.826 237.672 173.56 237.939C167.293 238.339 160.76 239.139 158.893 239.805C157.026 240.472 150.76 241.272 144.893 241.672C139.026 242.072 132.893 242.739 131.426 243.139C128.893 243.939 128.36 243.405 127.56 238.339C126.626 232.739 126.493 232.739 124.76 235.939C122.626 239.805 122.36 238.872 124.36 233.405C125.293 230.605 125.293 227.805 124.226 223.939C122.893 218.739 120.226 217.539 120.226 221.939C120.226 223.005 120.893 223.539 121.56 223.139C123.16 222.205 123.293 223.805 121.826 226.205C121.026 227.272 120.226 226.339 119.293 223.139C118.493 220.605 118.36 218.739 119.026 219.139C120.493 220.205 121.96 214.339 121.16 209.672C120.76 206.739 120.626 207.139 120.36 211.405C120.093 220.072 118.226 218.205 118.226 209.272C118.226 204.872 118.76 202.072 119.293 202.872C119.96 203.805 119.96 203.005 119.56 201.139C119.026 199.272 117.293 196.472 115.826 194.872C114.36 193.139 113.56 191.405 114.093 190.872C114.626 190.339 115.56 190.739 116.226 191.805C117.293 193.539 117.56 193.405 117.56 191.539C117.56 190.339 117.026 189.005 116.493 188.605C115.826 188.205 115.293 186.205 115.16 184.205C115.026 182.205 113.826 175.939 112.493 170.472C111.026 165.005 110.093 159.939 110.493 159.405C110.893 158.872 112.36 158.739 113.826 159.272C115.293 159.672 116.226 159.539 115.826 158.872C115.426 158.205 118.76 157.939 123.826 158.205C130.093 158.605 132.893 158.339 133.56 157.005C134.493 155.672 135.16 155.672 136.626 156.872C137.693 157.805 142.626 158.472 149.026 158.339C154.76 158.205 172.093 158.472 187.426 158.872C205.96 159.272 216.493 159.005 218.493 158.072L221.693 156.605L218.76 155.139C215.96 153.539 216.093 153.539 219.96 153.672C222.093 153.672 223.693 154.339 223.16 155.005C222.76 155.672 223.16 155.805 223.96 155.272C224.76 154.872 225.16 152.072 224.893 149.139C224.626 145.672 224.893 143.805 225.96 143.805C226.893 143.805 226.36 142.872 225.026 141.805C223.56 140.739 223.026 139.805 223.826 139.805C225.96 139.805 227.56 142.605 227.16 145.805C226.893 148.072 227.026 148.072 228.093 146.472C229.026 145.272 229.56 145.139 229.56 146.072C229.56 147.005 228.493 148.205 227.293 149.005C225.96 149.672 225.426 150.739 225.96 151.405C226.626 151.939 228.226 151.005 229.693 149.405C231.56 147.005 231.826 145.539 230.893 143.805C229.293 140.872 220.093 133.139 218.226 133.139C217.56 133.139 218.093 134.072 219.426 135.139C220.893 136.205 221.293 137.139 220.36 137.139C219.426 137.139 219.16 137.672 219.56 138.472C219.96 139.139 219.693 139.805 219.026 139.805C218.226 139.805 217.56 138.872 217.56 137.805C217.56 136.605 216.626 135.405 215.426 134.872C213.693 134.205 213.693 133.939 215.16 133.005C216.893 131.805 216.226 131.805 204.893 131.139C193.96 130.605 192.76 130.339 195.56 129.139C197.026 128.472 197.426 127.939 196.493 127.939C195.56 127.805 193.426 128.739 191.56 129.939C188.626 131.805 187.96 131.805 182.626 129.139C177.826 126.739 177.56 126.472 180.893 127.139C183.693 127.672 184.226 127.405 182.893 126.605C181.16 125.539 166.226 123.939 151.56 123.272C149.426 123.139 146.893 122.605 146.093 122.205C143.693 120.605 85.293 119.939 71.5596 121.405Z" fill="#6D7FA7"/>
<defs>
<filter id="filter0_i_247_101" x="0.5" y="0" width="376" height="447" filterUnits="userSpaceOnUse" color-interpolation-filters="sRGB">
<feFlood flood-opacity="0" result="BackgroundImageFix"/>
<feBlend mode="normal" in="SourceGraphic" in2="BackgroundImageFix" result="shape"/>
<feColorMatrix in="SourceAlpha" type="matrix" values="0 0 0 0 0 0 0 0 0 0 0 0 0 0 0 0 0 0 127 0" result="hardAlpha"/>
<feOffset dy="4"/>
<feGaussianBlur stdDeviation="2"/>
<feComposite in2="hardAlpha" operator="arithmetic" k2="-1" k3="1"/>
<feColorMatrix type="matrix" values="0 0 0 0 0 0 0 0 0 0 0 0 0 0 0 0 0 0 0.25 0"/>
<feBlend mode="normal" in2="shape" result="effect1_innerShadow_247_101"/>
</filter>
</defs>
</svg>
