<svg width="291" height="384" viewBox="0 0 291 384" fill="none" xmlns="http://www.w3.org/2000/svg">
<g filter="url(#filter0_i_247_103)">
<path d="M207 383.5H15L0 53L133.5 0.5L291 28.5L207 383.5Z" fill="#DCBF93"/>
</g>
<path d="M170.493 69.4719C167.293 70.9386 160.893 75.7386 156.226 80.2719L147.693 88.4052L142.36 83.8719C139.293 81.3386 133.826 77.6052 129.96 75.4719C124.093 72.2719 121.693 71.7386 113.693 71.8719C90.2264 72.4052 70.7597 86.0052 57.5597 110.805C49.4264 126.272 46.8931 138.005 46.8931 160.139C47.0264 188.939 51.4264 202.939 64.4931 214.805C73.2931 222.805 82.2264 226.139 92.8931 225.072C111.426 223.472 122.226 211.072 138.36 172.939L143.426 160.805V168.805C143.426 173.205 142.893 183.605 142.36 191.739L141.293 206.805L130.76 218.272C86.6264 266.539 71.4264 287.872 66.7597 307.605C59.8264 337.072 73.9597 357.472 102.893 359.739C119.96 360.939 137.026 355.072 146.093 344.805C160.626 328.139 165.16 304.005 168.226 226.139C169.293 196.672 169.96 192.005 173.426 188.139C181.693 178.939 221.026 127.072 223.693 121.739C226.493 116.272 225.56 112.139 221.56 112.139C218.093 112.139 217.293 112.939 192.226 144.672C176.226 164.939 172.093 169.339 171.826 166.939C171.56 165.339 172.36 154.539 173.56 143.072C175.16 127.472 176.626 119.205 179.56 110.805C182.893 101.339 183.56 97.3386 183.56 86.8052C183.56 73.8719 181.826 67.7386 178.226 67.2052C177.16 66.9386 173.693 68.0052 170.493 69.4719ZM129.16 91.7386C132.76 93.7386 137.96 97.3386 140.893 99.7386C146.226 104.272 146.226 104.405 146.226 114.005C146.226 122.139 145.293 126.139 140.76 138.272C124.493 182.005 113.826 199.605 102.36 202.139C91.1597 204.539 80.7597 190.005 77.0264 166.672C72.6264 139.739 78.6264 116.805 94.4931 99.4719C106.626 86.2719 115.426 84.2719 129.16 91.7386ZM138.893 251.739C137.826 280.139 134.893 309.339 132.226 321.072C128.626 336.405 121.293 344.139 110.36 344.139C104.626 344.139 97.5597 337.472 95.0264 329.739C87.0264 306.539 94.7597 283.472 121.96 248.805C129.293 239.472 138.226 229.472 139.293 229.472C139.693 229.472 139.426 239.472 138.893 251.739Z" fill="#443E39"/>
<defs>
<filter id="filter0_i_247_103" x="0" y="0.5" width="291" height="387" filterUnits="userSpaceOnUse" color-interpolation-filters="sRGB">
<feFlood flood-opacity="0" result="BackgroundImageFix"/>
<feBlend mode="normal" in="SourceGraphic" in2="BackgroundImageFix" result="shape"/>
<feColorMatrix in="SourceAlpha" type="matrix" values="0 0 0 0 0 0 0 0 0 0 0 0 0 0 0 0 0 0 127 0" result="hardAlpha"/>
<feOffset dy="4"/>
<feGaussianBlur stdDeviation="2"/>
<feComposite in2="hardAlpha" operator="arithmetic" k2="-1" k3="1"/>
<feColorMatrix type="matrix" values="0 0 0 0 0 0 0 0 0 0 0 0 0 0 0 0 0 0 0.25 0"/>
<feBlend mode="normal" in2="shape" result="effect1_innerShadow_247_103"/>
</filter>
</defs>
</svg>
