<svg width="374" height="353" viewBox="0 0 374 353" fill="none" xmlns="http://www.w3.org/2000/svg">
<g filter="url(#filter0_i_247_104)">
<rect width="374" height="353" fill="#6D7FA7"/>
</g>
<g filter="url(#filter1_i_247_104)">
<path d="M38 27.7783V54.7783L82.5 59.2783V309.778L57 317.778C54.6667 319.612 49.7 326.178 48.5 337.778C47 352.278 81 337.778 137 337.778C193 337.778 188 349.278 200 337.778C213.2 320.978 180.167 312.112 162 309.778L168 193.778C248 54.7783 321.5 201.278 275.5 305.278C273.833 306.778 266 309.778 248 309.778C225.5 309.778 233 330.778 237 337.778C241 344.778 284 333.778 314.5 337.778C345 341.778 335.5 343.278 335.5 323.278C335.5 307.278 311.5 307.612 299.5 309.778C317.667 291.278 310.5 190.278 299.5 157.778C255.9 80.5783 189.667 121.945 162 152.278C164.333 106.612 166.3 17.7783 155.5 27.7783C144.7 37.7783 72.6667 31.945 38 27.7783Z" fill="#FFE9E1"/>
</g>
<defs>
<filter id="filter0_i_247_104" x="0" y="0" width="374" height="357" filterUnits="userSpaceOnUse" color-interpolation-filters="sRGB">
<feFlood flood-opacity="0" result="BackgroundImageFix"/>
<feBlend mode="normal" in="SourceGraphic" in2="BackgroundImageFix" result="shape"/>
<feColorMatrix in="SourceAlpha" type="matrix" values="0 0 0 0 0 0 0 0 0 0 0 0 0 0 0 0 0 0 127 0" result="hardAlpha"/>
<feOffset dy="4"/>
<feGaussianBlur stdDeviation="2"/>
<feComposite in2="hardAlpha" operator="arithmetic" k2="-1" k3="1"/>
<feColorMatrix type="matrix" values="0 0 0 0 0 0 0 0 0 0 0 0 0 0 0 0 0 0 0.25 0"/>
<feBlend mode="normal" in2="shape" result="effect1_innerShadow_247_104"/>
</filter>
<filter id="filter1_i_247_104" x="38" y="27" width="298.9" height="321.223" filterUnits="userSpaceOnUse" color-interpolation-filters="sRGB">
<feFlood flood-opacity="0" result="BackgroundImageFix"/>
<feBlend mode="normal" in="SourceGraphic" in2="BackgroundImageFix" result="shape"/>
<feColorMatrix in="SourceAlpha" type="matrix" values="0 0 0 0 0 0 0 0 0 0 0 0 0 0 0 0 0 0 127 0" result="hardAlpha"/>
<feOffset dy="4"/>
<feGaussianBlur stdDeviation="2"/>
<feComposite in2="hardAlpha" operator="arithmetic" k2="-1" k3="1"/>
<feColorMatrix type="matrix" values="0 0 0 0 0 0 0 0 0 0 0 0 0 0 0 0 0 0 0.25 0"/>
<feBlend mode="normal" in2="shape" result="effect1_innerShadow_247_104"/>
</filter>
</defs>
</svg>
