<svg width="455" height="555" viewBox="0 0 455 555" fill="none" xmlns="http://www.w3.org/2000/svg">
<g filter="url(#filter0_i_247_213)">
<path d="M455 0H0L32 555H349L455 0Z" fill="#F2E9D8"/>
</g>
<path d="M87.295 78.2C91.295 79.9333 79.4284 81.3999 68.3617 80.7333C63.4284 80.4666 60.2284 80.4666 61.1617 80.7333C62.2284 81.1333 62.3617 81.6666 61.5617 82.2C60.7617 82.5999 65.8284 82.9999 72.7617 82.9999C79.695 82.9999 85.295 82.5999 85.295 81.9333C85.295 81.4 86.495 80.9999 87.9617 80.9999C89.9617 80.9999 89.695 80.4667 89.695 83C89.695 84.8667 89.695 85.5 89.695 87.2666C89.0284 86.8666 88.6284 161.533 88.6284 253C88.6284 344.467 89.0284 419.133 89.695 418.733C90.2284 418.467 90.6284 419.667 90.6284 421.533C90.6284 424.067 89.9617 425 87.9617 425C86.495 425 85.295 424.6 85.295 423.933C85.295 423.4 79.9617 423 73.295 423C61.695 423 61.295 423.133 61.295 426.067V429H116.628C154.228 428.867 172.095 428.467 172.762 427.533C173.295 426.467 173.962 426.467 174.628 427.533C175.162 428.6 179.028 429 185.428 428.733L195.295 428.333L189.295 426.733L183.295 425.133L189.695 425.8C194.495 426.333 195.962 426.067 195.962 424.6C195.962 423.267 193.828 422.867 186.762 422.867C181.695 423 178.228 423.4 179.162 423.933C179.962 424.6 179.428 425 177.562 425C175.962 425 174.762 424.6 174.762 423.933C174.895 423.4 174.895 422.733 174.762 422.333C174.762 421.933 174.495 397.4 174.495 367.667L174.362 313.8L178.762 312.6C182.762 311.533 183.028 311.267 180.628 310.2C178.495 309.4 178.362 309.133 180.228 309.133C181.562 309 183.695 311.267 185.428 314.333C187.028 317.267 188.762 319.4 189.028 319C189.428 318.733 188.628 316.867 187.428 315.133C185.962 312.867 185.828 311.533 186.762 310.867C187.828 310.333 187.695 309.667 186.495 308.867C184.895 307.8 185.028 307.4 186.628 306.333C187.695 305.667 189.295 305.133 189.962 305.133C190.762 305.133 190.628 305.533 189.695 305.8C188.495 306.333 188.495 307.533 189.295 309.8C190.228 312.333 190.228 312.867 189.028 312.2C187.962 311.533 187.828 311.933 188.628 313.8C189.162 315.133 189.828 318.067 189.962 320.333C190.095 322.467 191.828 327.267 193.828 330.867C195.695 334.467 197.295 338.333 197.295 339.4C197.295 341.133 197.695 341 199.295 338.867C201.162 336.467 201.295 336.467 200.228 339.533C199.428 341.667 199.828 344.067 201.428 347.4C202.762 349.933 204.095 352.733 204.362 353.533C204.628 354.333 205.428 354.467 206.095 353.933C206.762 353.4 206.628 352.467 205.962 351.933C205.162 351.4 203.562 348.867 202.228 346.333L199.962 341.667L203.295 345.667C205.162 347.8 206.628 350.2 206.762 351C206.762 351.667 207.695 350.2 208.628 347.667C209.695 345 210.495 344.067 210.495 345.4C210.628 346.733 209.962 349 209.162 350.467C207.028 354.6 206.628 358.467 208.095 360.867C209.295 362.733 209.428 362.733 208.762 360.733C208.362 359.4 208.628 358.067 209.162 357.667C209.828 357.4 210.628 358.733 210.895 361C211.295 363.4 211.028 364.6 210.095 364.067C209.428 363.533 209.962 365 211.428 367.133C214.628 371.667 216.495 375.8 216.095 377.533C215.962 378.2 216.895 377.933 218.095 376.867C220.228 375.133 220.228 375.267 219.028 377.667C217.562 380.333 218.228 382.333 223.962 393C226.228 397.267 227.428 399.667 232.895 410.6C235.295 415.667 237.562 419.667 237.695 419.667C237.962 419.667 237.828 417.667 237.562 415.267C236.762 409.4 238.095 411.133 239.162 417.4C239.828 421.133 239.695 422.333 238.362 422.067C237.428 421.8 236.762 422.467 237.028 423.267C237.162 424.2 236.762 425 235.962 425C235.295 425 234.628 424.6 234.628 423.933C234.628 423.4 230.628 423 225.562 423C217.295 423 216.628 423.267 216.228 425.933C215.828 428.733 216.228 428.867 225.562 428.6C230.895 428.467 235.695 427.8 236.228 427C236.895 426.2 237.295 426.333 237.295 427.267C237.295 428.2 237.962 429 238.762 429C239.562 429 239.962 427.8 239.562 426.333C239.162 424.867 239.428 423.667 240.095 423.667C240.762 423.667 241.295 424.867 241.295 426.2C241.295 428.733 242.628 428.867 279.428 429C317.428 429.133 317.428 429.133 319.962 426.067C321.428 424.333 322.495 423.8 322.628 424.6C322.628 425.533 322.095 426.333 321.295 426.333C320.628 426.333 319.962 426.733 319.962 427.4C319.962 427.933 325.162 428.6 331.562 428.733C343.828 429.133 345.562 427.8 334.895 426.067L328.628 425.133L335.962 425.533C339.962 425.8 343.428 426.733 343.695 427.533C344.495 429.933 346.628 427.8 346.628 424.6C346.628 422.467 346.228 422.2 345.428 423.533C344.495 425 344.228 425 343.562 423.533C343.028 422.2 342.762 422.2 342.762 423.267C342.628 424.2 341.962 425 341.162 425C340.495 425 340.095 424.6 340.495 423.933C340.762 423.4 338.762 423.133 335.828 423.4C330.762 423.933 326.628 421.667 326.628 418.467C326.628 415.8 323.562 410.467 322.495 411.133C321.828 411.533 321.295 412.467 321.295 413.133C321.295 413.933 321.962 414.067 322.628 413.667C323.428 413.133 322.895 414.867 321.695 417.4C320.362 419.933 319.028 421.533 318.895 420.867C318.628 420.2 319.162 418.733 320.095 417.533C321.295 416.067 321.295 415.133 320.228 414.067C318.362 412.2 318.095 409.8 319.828 410.867C321.962 412.2 322.362 408.333 320.362 405.667C318.362 403.133 318.362 403.133 319.028 406.067C319.428 407.667 319.162 408.733 318.495 408.2C317.828 407.8 317.295 406.6 317.295 405.533C317.295 404.467 316.628 403.8 315.828 403.933C315.028 404.2 313.962 403.533 313.695 402.467C313.162 401.133 313.828 401 316.095 401.667C318.762 402.6 319.028 402.333 317.828 400.867C317.028 399.8 315.562 396.733 314.628 393.8C313.428 390.2 312.628 389.267 311.828 390.467C311.295 391.4 311.162 392.733 311.428 393.267C311.828 393.8 311.162 393.933 309.962 393.4C308.762 393 308.362 392.2 309.028 391.8C309.828 391.4 310.495 390.067 310.762 389C311.162 386.467 303.828 371.533 302.495 372.467C301.962 372.733 302.362 374.867 303.562 377.133C304.628 379.4 305.162 381.533 304.762 381.933C304.362 382.333 303.695 381.533 303.295 380.2C302.762 378.867 301.828 376.6 301.028 375.133C300.228 373.533 300.228 372.2 301.162 371.267C303.562 368.867 302.895 367.133 300.362 369.133C298.762 370.467 298.362 370.6 299.162 369.267C299.695 368.333 299.428 366.6 298.362 365.4C297.162 363.8 297.162 363.4 298.362 364.2C299.162 364.733 297.828 360.867 295.295 355.8C292.628 350.6 290.228 346.333 289.828 346.333C289.295 346.333 289.295 347.267 289.695 348.333C290.228 349.4 289.962 350.6 289.295 351C288.495 351.533 287.962 349.533 287.962 346.6C287.962 341.4 283.028 329.667 278.895 324.6C277.695 323.4 277.295 322.333 277.828 322.333C278.362 322.333 277.562 320.6 276.095 318.467C274.495 316.333 273.295 313.933 273.295 313C273.295 312.067 271.428 308.067 269.162 303.933C266.895 299.667 261.695 290.067 257.828 282.333C253.828 274.6 249.962 268.333 249.028 268.333C248.228 268.333 247.295 267.4 247.028 266.333C246.495 264.6 246.628 264.6 247.962 266.333C249.295 268.067 249.428 267.933 248.762 265.933C248.362 264.6 247.962 262.733 247.962 261.933C247.962 261.133 247.028 261.667 245.828 263.133C243.962 265.533 243.828 265.533 245.295 262.6C246.095 261 247.295 259.667 248.095 259.667C248.895 259.667 249.028 259 248.495 258.067C247.962 257.267 248.095 257 248.895 257.4C250.628 258.467 260.228 250.467 259.162 248.733C258.495 247.8 258.895 247.667 259.828 248.2C261.562 249.267 265.562 245.133 264.495 243.4C264.095 242.867 264.628 242.733 265.695 243.133C266.762 243.533 268.095 243.133 268.762 242.2C269.428 241.133 269.162 240.867 267.962 241.667C266.895 242.333 266.495 242.2 267.162 241.267C269.028 238.333 265.428 238.467 262.228 241.533C259.828 243.667 259.295 245 260.362 245.4C261.295 245.8 260.895 246.2 259.695 246.2C258.362 246.333 257.295 245.667 257.295 245C257.295 243.267 262.228 238.333 263.962 238.333C264.762 238.333 265.162 237.667 265.028 236.867C264.762 236.067 265.562 235 266.628 234.733C268.228 234.2 268.228 234.333 266.762 235.4C265.428 236.467 265.695 237.133 268.095 238.867C270.628 240.6 271.562 240.733 272.628 239.4C273.295 238.467 279.428 233.267 285.962 227.8C292.628 222.333 299.028 216.733 300.362 215.133C302.495 212.867 304.228 212.6 314.095 212.867C320.362 213 328.095 212.733 331.428 212.2C336.495 211.533 337.295 210.867 337.295 208.2C337.295 204.2 335.028 204.067 334.228 207.933L333.695 211L333.428 208.067C333.295 205.133 333.295 205.133 305.295 205.133C289.162 205.133 277.028 205.667 276.628 206.467C276.095 207.133 268.495 207.8 259.562 207.933L243.295 208.2L263.295 209L283.295 209.8L263.695 210.067C250.228 210.2 243.962 210.867 243.962 211.8C243.962 212.867 250.495 213.133 266.628 212.733C284.362 212.333 289.295 212.6 289.295 213.933C289.295 214.867 288.362 215.667 287.295 215.667C285.562 215.667 285.562 216.067 286.895 218.333C287.828 219.8 289.428 220.733 290.228 220.333C291.162 220.067 291.962 220.333 291.962 221.133C291.962 222.6 284.362 221.8 282.895 220.2C282.362 219.667 283.028 219.667 284.362 220.067C285.562 220.6 286.628 220.333 286.628 219.667C286.628 216.733 282.895 218.733 274.495 226.067C269.695 230.2 259.028 239.133 250.895 245.8C242.762 252.6 236.362 258.333 236.762 258.733C237.162 259.133 236.362 260.067 234.895 260.867C233.428 261.667 231.962 261.933 231.695 261.533C231.295 261.133 229.428 262.733 227.428 265C225.562 267.267 223.962 268.733 223.962 268.2C223.962 267.8 221.428 269.667 218.228 272.467C213.028 277.267 204.095 284.867 195.962 291.533C194.095 293 193.295 294.2 194.095 294.333C194.895 294.333 196.895 292.867 198.495 291.133C200.362 289.133 202.362 288.2 203.695 288.6C204.762 289.133 205.428 288.867 205.028 288.2C204.628 287.533 206.095 285.133 208.362 283C211.428 279.933 211.962 279.667 210.762 281.933C209.962 283.533 208.628 285.267 207.962 285.667C207.162 286.2 206.895 287.133 207.295 287.8C208.095 288.867 207.428 289.133 202.628 289.533C201.562 289.667 200.762 290.733 200.762 291.933C200.895 293.267 200.228 293.8 199.162 293.4C198.095 293 197.295 293.4 197.295 294.2C197.295 295 198.095 295.667 199.028 295.667C200.095 295.667 199.962 296.2 198.628 297C196.895 298.2 196.895 298.467 198.628 299.8C200.362 301 200.228 301.133 198.228 300.467C196.895 300.067 195.028 299.667 194.228 299.667C193.428 299.667 193.962 298.733 195.428 297.667C197.828 295.8 197.828 295.667 194.228 296.067C192.095 296.333 188.228 298.2 185.562 300.333C182.495 302.867 179.162 304.2 176.495 304.2C174.095 304.2 172.362 304.6 172.762 305.133C173.028 305.667 172.762 306.467 172.095 306.867C171.428 307.267 170.628 306.467 170.228 305C169.695 303 170.228 302.333 172.095 302.333C174.628 302.333 174.628 299.8 174.628 189.667C174.628 93.5333 174.362 76.9999 172.628 76.9999C171.695 76.9999 170.495 78.5999 170.228 80.5999L169.695 84.3333L169.428 80.5999L169.295 76.9999L127.028 77.1333C103.695 77.1333 85.8284 77.6666 87.295 78.2Z" fill="#6D7FA7"/>
<rect x="253.304" y="252.424" width="183.271" height="12.3629" transform="rotate(66.1181 253.304 252.424)" fill="#6D7FA7"/>
<rect x="192.753" y="295.588" width="134.556" height="18.3213" transform="rotate(66.1181 192.753 295.588)" fill="#6D7FA7"/>
<rect x="61" y="423" width="138" height="6" fill="#6D7FA7"/>
<rect x="61" y="77" width="138" height="6" fill="#6D7FA7"/>
<path d="M163.745 303.729L284.03 206.222L303.5 213.5L176.175 319.062L163.745 303.729Z" fill="#6D7FA7"/>
<defs>
<filter id="filter0_i_247_213" x="0" y="0" width="455" height="559" filterUnits="userSpaceOnUse" color-interpolation-filters="sRGB">
<feFlood flood-opacity="0" result="BackgroundImageFix"/>
<feBlend mode="normal" in="SourceGraphic" in2="BackgroundImageFix" result="shape"/>
<feColorMatrix in="SourceAlpha" type="matrix" values="0 0 0 0 0 0 0 0 0 0 0 0 0 0 0 0 0 0 127 0" result="hardAlpha"/>
<feOffset dy="4"/>
<feGaussianBlur stdDeviation="2"/>
<feComposite in2="hardAlpha" operator="arithmetic" k2="-1" k3="1"/>
<feColorMatrix type="matrix" values="0 0 0 0 0 0 0 0 0 0 0 0 0 0 0 0 0 0 0.25 0"/>
<feBlend mode="normal" in2="shape" result="effect1_innerShadow_247_213"/>
</filter>
</defs>
</svg>
