<svg width="415" height="344" viewBox="0 0 415 344" fill="none" xmlns="http://www.w3.org/2000/svg">
<g filter="url(#filter0_i_247_215)">
<path d="M12 23.0001H347.036L385 302L12 320V23.0001Z" fill="#F2E9D8"/>
</g>
<g filter="url(#filter1_i_247_215)">
<path d="M5.15905 18.9333C5.15905 29.4667 3.82572 106.667 2.22572 190.4C0.62572 274.267 -0.307613 343.2 0.092387 343.467C0.62572 343.733 94.0924 341.2 207.826 337.733C362.226 332.933 414.626 330.933 414.626 329.733C414.626 327.067 357.692 48.9333 350.226 14.6667L347.159 0.666675L176.226 0.266675L5.29239 8.53438e-06L5.15905 18.9333ZM57.2924 43.4667C62.7591 44.4 74.3591 45.2 83.0257 45.3333C96.0924 45.3333 99.0257 45.7333 101.026 47.7333C102.226 48.9333 121.692 84 144.226 125.467C166.759 166.933 186.626 203.333 188.359 206.4L191.426 211.867L200.492 185.6C218.759 132.667 242.759 71.2 249.159 61.3333C252.626 55.8667 254.492 55.0667 265.826 54.1333C271.826 53.7333 291.292 52.1333 309.159 50.6667C342.359 48 343.559 48.1333 346.892 52.6667C348.759 55.2 347.959 62.2667 345.426 64.5333C343.959 65.8667 338.626 67.3333 331.159 68.2667C324.626 69.0667 318.892 70.1333 318.359 70.6667C317.692 71.0667 318.759 80.4 320.626 91.3333C329.292 144.667 339.026 219.2 341.426 251.333C342.226 262.267 343.159 272 343.292 272.8C343.559 273.733 350.092 274.533 360.226 275.067C374.892 275.867 376.892 276.267 379.026 278.8C382.092 282.533 381.959 288.4 378.626 291.333C376.226 293.467 372.759 293.867 348.226 294.267C319.559 294.667 287.826 297.333 267.426 300.8C260.892 301.867 254.092 302.533 252.359 302C245.292 300.267 243.559 290 249.826 286C251.292 284.933 258.759 283.067 266.359 281.867L280.092 279.6L279.159 269.467C276.892 241.6 271.559 191.333 268.492 169.333C265.292 146.267 256.359 94.6667 255.292 93.6C253.826 92.1333 219.159 187.6 195.026 260C182.092 298.667 180.092 302.667 173.959 302.667C172.226 302.667 169.692 301.6 168.092 300.267C166.492 299.067 156.759 281.2 146.226 260.667C112.226 193.6 81.9591 134.8 81.6924 135.067C80.7591 136.133 69.2924 238.933 67.2924 265.333L66.3591 276.8L82.6257 278.933C91.5591 280.133 99.6924 281.867 100.892 282.8C104.092 285.467 105.426 290.267 103.959 294C101.826 299.6 97.4257 300.267 80.7591 297.867C66.4924 295.733 36.0924 295.867 24.6257 298.133C16.4924 299.6 10.8924 287.867 17.1591 282.133C19.6924 279.733 32.2257 277.467 42.3591 277.333H47.9591V270.933C47.9591 262.933 52.6257 213.067 55.4257 190.667C59.1591 160.667 65.4257 121.2 70.7591 94C73.5591 79.3333 75.9591 66.6667 75.9591 66C75.9591 65.2 69.5591 63.8667 61.6924 63.0667C43.9591 61.0667 35.0257 58.1333 32.8924 53.7333C29.8257 46.9333 36.6257 38.9333 43.9591 40.8C45.8257 41.2 51.8257 42.4 57.2924 43.4667Z" fill="#433E3A"/>
</g>
<defs>
<filter id="filter0_i_247_215" x="12" y="23.0001" width="373" height="301" filterUnits="userSpaceOnUse" color-interpolation-filters="sRGB">
<feFlood flood-opacity="0" result="BackgroundImageFix"/>
<feBlend mode="normal" in="SourceGraphic" in2="BackgroundImageFix" result="shape"/>
<feColorMatrix in="SourceAlpha" type="matrix" values="0 0 0 0 0 0 0 0 0 0 0 0 0 0 0 0 0 0 127 0" result="hardAlpha"/>
<feOffset dy="4"/>
<feGaussianBlur stdDeviation="2"/>
<feComposite in2="hardAlpha" operator="arithmetic" k2="-1" k3="1"/>
<feColorMatrix type="matrix" values="0 0 0 0 0 0 0 0 0 0 0 0 0 0 0 0 0 0 0.25 0"/>
<feBlend mode="normal" in2="shape" result="effect1_innerShadow_247_215"/>
</filter>
<filter id="filter1_i_247_215" x="0" y="0" width="414.626" height="347.486" filterUnits="userSpaceOnUse" color-interpolation-filters="sRGB">
<feFlood flood-opacity="0" result="BackgroundImageFix"/>
<feBlend mode="normal" in="SourceGraphic" in2="BackgroundImageFix" result="shape"/>
<feColorMatrix in="SourceAlpha" type="matrix" values="0 0 0 0 0 0 0 0 0 0 0 0 0 0 0 0 0 0 127 0" result="hardAlpha"/>
<feOffset dy="4"/>
<feGaussianBlur stdDeviation="2"/>
<feComposite in2="hardAlpha" operator="arithmetic" k2="-1" k3="1"/>
<feColorMatrix type="matrix" values="0 0 0 0 0 0 0 0 0 0 0 0 0 0 0 0 0 0 0.25 0"/>
<feBlend mode="normal" in2="shape" result="effect1_innerShadow_247_215"/>
</filter>
</defs>
</svg>
