<svg width="247" height="535" viewBox="0 0 247 535" fill="none" xmlns="http://www.w3.org/2000/svg">
<g filter="url(#filter0_i_247_217)">
<path d="M246.5 31C173 20.6667 20.8 0 0 0V534.5H246.5V31Z" fill="#FFD2BF"/>
</g>
<path d="M102.56 90.2711C90.0262 92.6711 73.2262 101.338 67.2262 108.404C53.2262 124.804 46.9595 140.671 43.0929 168.804C40.8262 186.004 40.4262 356.804 42.6929 377.738C44.5595 394.804 49.2262 413.471 53.8929 422.938C57.4929 430.004 64.8262 440.404 66.9595 441.338C67.4929 441.471 69.3595 443.071 70.9595 444.671C75.2262 449.071 84.8262 454.138 93.8929 456.938C106.293 460.804 137.226 460.538 150.026 456.538C171.626 449.738 185.493 434.804 193.093 410.138C199.76 388.804 200.293 380.138 200.826 284.804C201.626 176.671 200.426 159.071 191.093 134.404C183.226 113.738 170.693 100.938 151.226 93.4711C144.56 90.9378 140.16 90.4045 124.56 90.0045C114.293 89.8711 104.426 90.0045 102.56 90.2711ZM129.893 130.938C136.693 132.804 142.96 139.604 146.293 148.404C151.493 162.271 152.16 179.204 151.493 284.138C150.96 388.671 150.826 390.804 144.693 404.804C140.293 414.671 135.093 418.004 123.226 418.538C111.36 419.204 105.36 416.804 100.16 409.604C97.8929 406.538 95.8929 404.538 95.6262 405.071C95.2262 405.738 95.0929 405.471 95.3595 404.538C95.4929 403.738 94.8262 399.871 93.7595 395.871C90.0262 382.138 88.9595 344.671 89.6262 255.471C90.2929 168.938 90.8262 159.071 95.3595 147.471C100.826 133.471 114.693 126.804 129.893 130.938Z" fill="#FA4C4D"/>
<defs>
<filter id="filter0_i_247_217" x="0" y="0" width="246.5" height="538.5" filterUnits="userSpaceOnUse" color-interpolation-filters="sRGB">
<feFlood flood-opacity="0" result="BackgroundImageFix"/>
<feBlend mode="normal" in="SourceGraphic" in2="BackgroundImageFix" result="shape"/>
<feColorMatrix in="SourceAlpha" type="matrix" values="0 0 0 0 0 0 0 0 0 0 0 0 0 0 0 0 0 0 127 0" result="hardAlpha"/>
<feOffset dy="4"/>
<feGaussianBlur stdDeviation="2"/>
<feComposite in2="hardAlpha" operator="arithmetic" k2="-1" k3="1"/>
<feColorMatrix type="matrix" values="0 0 0 0 0 0 0 0 0 0 0 0 0 0 0 0 0 0 0.25 0"/>
<feBlend mode="normal" in2="shape" result="effect1_innerShadow_247_217"/>
</filter>
</defs>
</svg>
