<svg width="372" height="540" viewBox="0 0 372 540" fill="none" xmlns="http://www.w3.org/2000/svg">
<g filter="url(#filter0_i_247_219)">
<path d="M288 0H36L0 396L126 480L330 540V396L372 204L288 0Z" fill="#DCBF93"/>
</g>
<path d="M144.693 82.6046C114.56 87.1379 87.3596 101.271 76.4262 117.805C69.4929 128.205 64.4262 150.738 61.3596 185.138C59.7596 202.738 59.6262 334.071 61.2262 347.538C64.2929 374.071 72.0262 393.005 86.2929 408.071C102.16 424.871 116.826 433.805 136.96 438.738C152.426 442.605 177.76 442.871 191.226 439.271C201.093 436.605 212.426 431.538 213.893 429.005C214.56 428.071 217.36 430.071 221.76 434.205C225.493 437.805 229.893 441.538 231.493 442.338C238.56 445.938 261.626 433.005 267.36 422.205C270.293 416.605 269.626 412.738 264.426 405.938L259.626 399.671L262.56 392.738C274.16 365.805 276.96 346.738 279.36 276.471C280.426 247.405 278.16 202.738 274.56 179.138C266.16 124.605 248.16 95.0046 217.36 84.8712C209.626 82.3379 205.093 81.9379 180.56 81.6712C165.226 81.5379 148.96 81.9379 144.693 82.6046ZM192.16 159.671C200.026 163.405 207.093 171.538 209.893 179.671C213.493 190.738 216.026 221.805 216.693 264.471C217.226 298.871 216.96 309.138 214.96 325.538C213.626 336.338 212.026 345.405 211.36 345.538C210.693 345.671 207.893 341.538 204.96 336.471C196.293 321.005 192.16 319.271 182.293 327.138C179.093 329.671 173.893 333.271 170.56 335.271C160.426 341.405 158.56 343.671 158.56 349.805C158.56 356.071 162.826 363.405 172.426 373.671C175.76 377.271 178.56 380.605 178.56 380.871C178.56 381.271 173.226 381.138 166.56 380.871C152.826 380.071 143.626 376.338 135.226 368.205C122.426 355.805 120.56 342.071 121.626 271.138C122.426 218.605 124.96 182.738 128.56 171.671C132.826 159.005 141.626 155.671 168.56 156.205C183.493 156.471 186.826 157.005 192.16 159.671Z" fill="#433E3A"/>
<defs>
<filter id="filter0_i_247_219" x="0" y="0" width="372" height="544" filterUnits="userSpaceOnUse" color-interpolation-filters="sRGB">
<feFlood flood-opacity="0" result="BackgroundImageFix"/>
<feBlend mode="normal" in="SourceGraphic" in2="BackgroundImageFix" result="shape"/>
<feColorMatrix in="SourceAlpha" type="matrix" values="0 0 0 0 0 0 0 0 0 0 0 0 0 0 0 0 0 0 127 0" result="hardAlpha"/>
<feOffset dy="4"/>
<feGaussianBlur stdDeviation="2"/>
<feComposite in2="hardAlpha" operator="arithmetic" k2="-1" k3="1"/>
<feColorMatrix type="matrix" values="0 0 0 0 0 0 0 0 0 0 0 0 0 0 0 0 0 0 0.25 0"/>
<feBlend mode="normal" in2="shape" result="effect1_innerShadow_247_219"/>
</filter>
</defs>
</svg>
