<svg width="403" height="414" viewBox="0 0 403 414" fill="none" xmlns="http://www.w3.org/2000/svg">
<g filter="url(#filter0_i_247_220)">
<path d="M64.5 414L0 70L403 0L365.5 328L64.5 414Z" fill="#6D7FA7"/>
</g>
<path d="M103 137.864V116.364C116.833 122.364 147.9 131.964 161.5 122.364C175.1 112.764 201.5 116.031 213 118.864C210.667 125.198 208 137.164 216 134.364C281.6 90.7643 316.667 130.864 326 156.364C325.333 182.031 313.8 228.364 273 208.364C232.2 188.364 264 156.364 285 142.864C296.667 142.864 307.4 141.864 257 137.864C206.6 133.864 208.667 236.864 216 288.864L246 292.864C250 302.364 253 319.764 233 313.364C213 306.964 141 310.698 107.5 313.364V292.864L139 288.864C140 240.031 141.4 142.464 139 142.864C136.6 143.264 114 139.698 103 137.864Z" fill="#FEB648"/>
<defs>
<filter id="filter0_i_247_220" x="0" y="0" width="403" height="418" filterUnits="userSpaceOnUse" color-interpolation-filters="sRGB">
<feFlood flood-opacity="0" result="BackgroundImageFix"/>
<feBlend mode="normal" in="SourceGraphic" in2="BackgroundImageFix" result="shape"/>
<feColorMatrix in="SourceAlpha" type="matrix" values="0 0 0 0 0 0 0 0 0 0 0 0 0 0 0 0 0 0 127 0" result="hardAlpha"/>
<feOffset dy="4"/>
<feGaussianBlur stdDeviation="2"/>
<feComposite in2="hardAlpha" operator="arithmetic" k2="-1" k3="1"/>
<feColorMatrix type="matrix" values="0 0 0 0 0 0 0 0 0 0 0 0 0 0 0 0 0 0 0.25 0"/>
<feBlend mode="normal" in2="shape" result="effect1_innerShadow_247_220"/>
</filter>
</defs>
</svg>
