<svg width="284" height="363" viewBox="0 0 284 363" fill="none" xmlns="http://www.w3.org/2000/svg">
<g filter="url(#filter0_i_247_221)">
<path d="M239 60.9999L23 91.4999L39 326.5L261 307.5L239 60.9999Z" fill="#DCBF93"/>
</g>
<g filter="url(#filter1_i_247_221)">
<path d="M95.2 4.39999C93.0667 6.93333 90.1333 10.4 88.6667 12.1333C87.2 13.8667 66.6667 38.5333 42.9333 66.9333C12.5333 103.6 0 119.6 0 121.867C0 123.6 6.53333 161.067 14.6667 204.933C22.6667 248.8 32.4 301.733 36.2667 322.667C40 343.6 43.6 361.2 44.1333 361.867C45.2 363.067 54 362.267 179.333 348.133C231.467 342.133 276 337.2 278.533 337.067L283.067 336.8L282.133 317.333C281.6 306.667 279.2 259.867 276.667 213.333C274.133 166.8 271.067 111.2 270 90C268.8 68.6667 267.6 49.8667 267.2 48C266.667 44.8 264.933 44.1333 240.267 37.6C225.867 33.7333 188.267 23.7333 156.933 15.3333C125.467 6.93334 99.6 0 99.3333 0C99.0667 0 97.2 1.99999 95.2 4.39999ZM240.933 86.9333C245.333 91.0667 244.8 95.6 238 109.2C231.2 122.8 224.667 141.467 223.2 151.333C222 159.867 219.467 165.067 215.333 166.933C208.667 170 200 164.267 200 156.8C200 153.067 202.267 141.2 204.667 131.867C205.467 128.8 204.8 127.867 198.533 123.867C182.8 113.867 167.467 109.333 144.533 108.4C130.533 107.733 127.067 108 118.933 110.533C102.667 115.467 94.8 126.267 98.5333 138.667C102.267 151.333 121.867 160.667 159.6 168C211.6 178 239.733 192.8 250.4 215.6C253.6 222.667 254 224.8 254 238.667C254 253.2 253.733 254.4 249.733 262.667C238.4 285.733 212.267 303.067 180.667 308.667C166.933 311.067 158 311.2 142.667 309.333C118.933 306.4 96.5333 298.133 79.2 286C74.4 282.667 70.2667 280 69.8667 280C69.6 280 69.4667 283.467 69.6 287.867C69.8667 296.8 67.3333 302.133 62 303.467C57.7333 304.533 51.0667 301.867 48.9333 298.133C47.0667 294.933 46.9333 264.667 48.5333 243.467C49.4667 232.133 50.1333 229.867 52.8 227.067C56.6667 223.2 63.7333 222.933 68.1333 226.533C71.0667 228.933 71.3333 230 70.9333 239.467L70.6667 249.733L76.2667 254.933C98 274.8 122.667 285.333 152.8 287.467C173.2 288.933 196.133 284.267 206.133 276.667C211.6 272.533 213.333 265.6 210.133 260.667C205.067 252.933 185.733 245.733 158.4 241.333C117.6 234.8 104.533 231.333 88 222.4C62 208.533 49.3333 189.333 49.3333 164.133C49.3333 145.333 56.5333 127.2 69.7333 113.2C81.3333 100.667 94 93.3333 112 88.4C124 85.0667 153.733 85.0667 169.333 88.4C183.067 91.3333 198.533 97.2 207.2 102.667C210.8 104.933 213.867 106.667 214 106.4C214.133 106.133 216.267 102.267 218.533 97.6C220.8 93.0667 223.867 88.1334 225.333 86.6667C229.067 82.9334 236.933 83.0667 240.933 86.9333Z" fill="#433E3A"/>
</g>
<defs>
<filter id="filter0_i_247_221" x="23" y="60.9999" width="238" height="269.5" filterUnits="userSpaceOnUse" color-interpolation-filters="sRGB">
<feFlood flood-opacity="0" result="BackgroundImageFix"/>
<feBlend mode="normal" in="SourceGraphic" in2="BackgroundImageFix" result="shape"/>
<feColorMatrix in="SourceAlpha" type="matrix" values="0 0 0 0 0 0 0 0 0 0 0 0 0 0 0 0 0 0 127 0" result="hardAlpha"/>
<feOffset dy="4"/>
<feGaussianBlur stdDeviation="2"/>
<feComposite in2="hardAlpha" operator="arithmetic" k2="-1" k3="1"/>
<feColorMatrix type="matrix" values="0 0 0 0 0 0 0 0 0 0 0 0 0 0 0 0 0 0 0.25 0"/>
<feBlend mode="normal" in2="shape" result="effect1_innerShadow_247_221"/>
</filter>
<filter id="filter1_i_247_221" x="0" y="0" width="283.067" height="366.257" filterUnits="userSpaceOnUse" color-interpolation-filters="sRGB">
<feFlood flood-opacity="0" result="BackgroundImageFix"/>
<feBlend mode="normal" in="SourceGraphic" in2="BackgroundImageFix" result="shape"/>
<feColorMatrix in="SourceAlpha" type="matrix" values="0 0 0 0 0 0 0 0 0 0 0 0 0 0 0 0 0 0 127 0" result="hardAlpha"/>
<feOffset dy="4"/>
<feGaussianBlur stdDeviation="2"/>
<feComposite in2="hardAlpha" operator="arithmetic" k2="-1" k3="1"/>
<feColorMatrix type="matrix" values="0 0 0 0 0 0 0 0 0 0 0 0 0 0 0 0 0 0 0.25 0"/>
<feBlend mode="normal" in2="shape" result="effect1_innerShadow_247_221"/>
</filter>
</defs>
</svg>
