<svg width="340" height="355" viewBox="0 0 340 355" fill="none" xmlns="http://www.w3.org/2000/svg">
<g filter="url(#filter0_i_247_223)">
<path d="M285.5 0.5H0V355H339.5L285.5 0.5Z" fill="#F2E9D8"/>
</g>
<path d="M84.2263 49.0025C68.893 52.8692 49.5597 71.4025 37.693 93.6692C28.2263 111.669 26.7596 125.269 34.3596 126.203C38.893 126.736 44.6263 120.869 45.693 114.603C47.293 104.869 50.493 93.8025 53.1597 88.7359C58.893 77.4025 73.8263 67.0025 77.1597 71.9359C79.5597 75.5359 76.893 106.869 67.9596 178.469C64.6263 205.136 64.6263 261.269 67.9596 273.136C77.8263 308.203 99.693 321.136 126.226 307.803C140.093 300.869 160.893 278.336 175.826 254.203L180.493 246.469L179.826 274.203L179.16 301.936L182.36 305.536C186.226 309.803 197.826 313.136 209.56 313.136C216.493 313.136 218.36 312.603 224.36 308.469C237.16 299.669 251.826 278.336 268.36 244.069C282.493 215.136 288.36 193.803 282.226 193.803C280.893 193.803 274.626 204.869 264.893 224.469C249.826 254.603 239.96 270.869 230.493 281.403C225.293 287.136 218.893 291.003 216.893 289.803C214.226 288.069 216.093 208.203 219.56 177.803C220.226 171.936 224.093 153.269 228.093 136.469C238.093 95.0025 240.493 67.9359 235.426 53.2692C233.693 48.4692 231.693 47.5359 225.693 49.2692C218.76 51.1359 199.56 66.0692 197.56 71.0025C195.693 75.6692 191.96 111.003 186.76 173.803L183.293 216.469L176.093 229.669C161.56 255.803 142.493 278.869 130.626 285.003C114.626 293.003 103.826 284.869 99.1597 261.003C94.493 237.803 95.0263 215.136 101.56 149.136C105.96 105.536 107.826 75.2692 106.76 67.1359C104.76 51.8025 97.293 45.8025 84.2263 49.0025Z" fill="#423F38"/>
<defs>
<filter id="filter0_i_247_223" x="0" y="0.5" width="339.5" height="358.5" filterUnits="userSpaceOnUse" color-interpolation-filters="sRGB">
<feFlood flood-opacity="0" result="BackgroundImageFix"/>
<feBlend mode="normal" in="SourceGraphic" in2="BackgroundImageFix" result="shape"/>
<feColorMatrix in="SourceAlpha" type="matrix" values="0 0 0 0 0 0 0 0 0 0 0 0 0 0 0 0 0 0 127 0" result="hardAlpha"/>
<feOffset dy="4"/>
<feGaussianBlur stdDeviation="2"/>
<feComposite in2="hardAlpha" operator="arithmetic" k2="-1" k3="1"/>
<feColorMatrix type="matrix" values="0 0 0 0 0 0 0 0 0 0 0 0 0 0 0 0 0 0 0.25 0"/>
<feBlend mode="normal" in2="shape" result="effect1_innerShadow_247_223"/>
</filter>
</defs>
</svg>
