<svg width="436" height="500" viewBox="0 0 436 500" fill="none" xmlns="http://www.w3.org/2000/svg">
<g filter="url(#filter0_i_247_226)">
<path d="M436 41C313.833 29.3333 55.6 4.8 0 0V442L436 500V41Z" fill="#FEB648"/>
</g>
<path d="M51.4 107.933L51.8 113L63.1333 113.133C69.4 113.266 75.1333 113.4 76.0667 113.533C76.8667 113.533 83 123.133 89.5333 134.6C96.0667 146.2 116.2 181.4 134.067 213C152.067 244.466 168.733 273.933 171.133 278.466L175.667 286.466L163.8 306.466C157.4 317.4 144.2 339.533 134.6 355.666C124.867 371.8 111.667 394.066 105.133 405.266L93.1333 425.533L77.5333 425.666H61.8V430.333V435L110.867 434.733L159.8 434.333V430.333V426.333L135.533 425.933C120.2 425.8 111.133 425.133 111.133 424.2C111.133 423.533 119.933 408.333 130.6 390.6C141.4 372.866 157.667 345.666 167 330.066C176.2 314.466 184.067 301.8 184.467 301.8C185.133 301.8 251.667 419.4 253.133 423.4C254.067 425.4 252.733 425.666 238.467 425.666H223L223.4 429.933L223.8 434.333L304.867 434.733L385.8 435V430.333V425.666H372.067H358.333L350.467 411.933C346.2 404.466 338.6 391.4 333.667 383C328.867 374.6 312.6 346.6 297.8 321C282.867 295.266 266.333 266.733 260.867 257.4L250.867 240.333L254.733 234.466C260.2 225.933 268.867 212.066 284.467 187C307.8 149.666 311.533 143.8 321.533 127.933L331.133 112.733L346.467 112.866L361.8 113V107.933V103H313H264.333L264.733 107.8L265.133 112.733H288.867C304.333 112.733 312.467 113.266 312.467 114.066C312.467 114.866 311 117.666 309.267 120.2C307.533 122.866 301.4 132.466 295.667 141.666C290.067 150.866 282.333 163.266 278.6 169.266C274.867 175.133 265.533 190.333 257.8 202.866C250.067 215.4 243.4 225.666 243 225.666C241.8 225.666 180.467 115.8 180.467 113.8C180.467 113.266 187.267 112.733 195.533 112.6L210.467 112.466L210.867 107.8L211.267 103H131.133H51L51.4 107.933Z" fill="#433E3A"/>
<defs>
<filter id="filter0_i_247_226" x="0" y="0" width="436" height="504" filterUnits="userSpaceOnUse" color-interpolation-filters="sRGB">
<feFlood flood-opacity="0" result="BackgroundImageFix"/>
<feBlend mode="normal" in="SourceGraphic" in2="BackgroundImageFix" result="shape"/>
<feColorMatrix in="SourceAlpha" type="matrix" values="0 0 0 0 0 0 0 0 0 0 0 0 0 0 0 0 0 0 127 0" result="hardAlpha"/>
<feOffset dy="4"/>
<feGaussianBlur stdDeviation="2"/>
<feComposite in2="hardAlpha" operator="arithmetic" k2="-1" k3="1"/>
<feColorMatrix type="matrix" values="0 0 0 0 0 0 0 0 0 0 0 0 0 0 0 0 0 0 0.25 0"/>
<feBlend mode="normal" in2="shape" result="effect1_innerShadow_247_226"/>
</filter>
</defs>
</svg>
