<svg width="323" height="291" viewBox="0 0 323 291" fill="none" xmlns="http://www.w3.org/2000/svg">
<g filter="url(#filter0_i_247_228)">
<path d="M216 31C157.833 40.1667 40 58.5 34 58.5L43 274L271 243L287.5 144L216 31Z" fill="#F2E9D8"/>
</g>
<g filter="url(#filter1_i_247_228)">
<path d="M232.546 4.01133C216.413 6.01133 188.546 9.61133 170.546 11.878C91.8793 21.878 16.146 33.478 4.01262 37.3447C-0.120709 38.8113 -0.387375 39.078 0.279291 43.7447C1.07929 49.078 3.61263 70.4113 12.546 147.211C19.4793 206.678 26.8126 261.878 30.0126 278.811L32.146 290.545H36.6793C39.0793 290.545 60.146 288.411 83.4793 285.745C106.813 283.211 169.879 276.411 223.613 270.678C277.346 264.945 321.746 259.878 322.146 259.345C322.679 258.811 318.813 239.211 313.479 215.478C308.279 191.878 295.879 135.878 285.879 91.2113C265.613 -0.522004 265.746 -0.122004 263.479 0.0113292C262.546 0.144663 248.679 1.878 232.546 4.01133ZM185.879 50.5447C196.946 54.8113 203.346 61.478 204.679 69.878C205.879 78.678 203.613 87.078 197.746 94.1447C195.213 97.3447 188.813 105.345 183.746 112.145L174.413 124.545L210.146 125.211C249.213 125.878 249.879 126.011 257.746 134.411C260.813 137.611 261.613 139.745 261.613 144.411C261.613 151.611 259.746 154.145 253.346 155.745C250.679 156.411 230.279 157.345 207.879 157.745C185.479 158.278 162.679 158.945 157.213 159.478L147.213 160.278L140.546 169.078C131.613 181.078 113.213 207.611 113.213 208.678C113.213 210.811 172.413 206.278 214.013 200.945L236.813 198.145L242.679 201.078C253.213 206.545 258.146 213.078 256.013 218.945C253.879 224.545 241.079 230.011 223.079 233.078C179.346 240.545 121.213 246.011 96.0126 244.945C74.2793 244.011 65.2126 238.545 65.2126 226.145C65.2126 218.678 68.2793 213.078 87.2126 186.811L105.213 161.878L94.8126 161.211C83.346 160.411 77.4793 157.345 73.8793 150.545C71.6126 146.145 71.346 139.478 73.2126 135.878C75.8793 130.811 87.2126 128.145 110.413 127.078L132.146 126.145L150.546 104.011L168.946 81.878L164.013 81.478C156.146 80.678 134.146 83.7447 106.146 89.3447C91.6126 92.1447 78.2793 94.5447 76.4126 94.5447C71.0793 94.5447 61.0793 89.078 58.2793 84.678C54.6793 78.9447 55.746 69.7447 60.2793 65.7447C64.946 61.7447 105.079 52.278 137.879 47.3447C140.146 47.078 150.013 46.9447 159.879 47.078C174.946 47.3447 179.213 47.878 185.879 50.5447Z" fill="#433E3A"/>
</g>
<defs>
<filter id="filter0_i_247_228" x="34" y="31" width="253.5" height="247" filterUnits="userSpaceOnUse" color-interpolation-filters="sRGB">
<feFlood flood-opacity="0" result="BackgroundImageFix"/>
<feBlend mode="normal" in="SourceGraphic" in2="BackgroundImageFix" result="shape"/>
<feColorMatrix in="SourceAlpha" type="matrix" values="0 0 0 0 0 0 0 0 0 0 0 0 0 0 0 0 0 0 127 0" result="hardAlpha"/>
<feOffset dy="4"/>
<feGaussianBlur stdDeviation="2"/>
<feComposite in2="hardAlpha" operator="arithmetic" k2="-1" k3="1"/>
<feColorMatrix type="matrix" values="0 0 0 0 0 0 0 0 0 0 0 0 0 0 0 0 0 0 0.25 0"/>
<feBlend mode="normal" in2="shape" result="effect1_innerShadow_247_228"/>
</filter>
<filter id="filter1_i_247_228" x="0" y="-6.10352e-05" width="322.195" height="294.545" filterUnits="userSpaceOnUse" color-interpolation-filters="sRGB">
<feFlood flood-opacity="0" result="BackgroundImageFix"/>
<feBlend mode="normal" in="SourceGraphic" in2="BackgroundImageFix" result="shape"/>
<feColorMatrix in="SourceAlpha" type="matrix" values="0 0 0 0 0 0 0 0 0 0 0 0 0 0 0 0 0 0 127 0" result="hardAlpha"/>
<feOffset dy="4"/>
<feGaussianBlur stdDeviation="2"/>
<feComposite in2="hardAlpha" operator="arithmetic" k2="-1" k3="1"/>
<feColorMatrix type="matrix" values="0 0 0 0 0 0 0 0 0 0 0 0 0 0 0 0 0 0 0.25 0"/>
<feBlend mode="normal" in2="shape" result="effect1_innerShadow_247_228"/>
</filter>
</defs>
</svg>
